<svg width="64" height="64" viewBox="0 0 64 64" fill="none" xmlns="http://www.w3.org/2000/svg">
  <defs>
    <linearGradient id="aegisGradient" x1="0" y1="0" x2="1" y2="1">
      <stop offset="0" stop-color="#1a1a1a" />
      <stop offset="1" stop-color="#4a4a4a" />
    </linearGradient>
  </defs>
  <rect width="64" height="64" rx="14" fill="#f4f4f0" />
  <path d="M32 10L49 18V30C49 42.5 41 52 32 54C23 52 15 42.5 15 30V18L32 10Z" fill="url(#aegisGradient)" />
  <path d="M32 18L42 22V30C42 38 37.2 44.3 32 46C26.8 44.3 22 38 22 30V22L32 18Z" fill="#f4f4f0" />
  <path d="M32 24L37 26.5V30.5C37 35 34.1 38.9 32 40C29.9 38.9 27 35 27 30.5V26.5L32 24Z" fill="#1a1a1a" />
</svg>
